<svg height="480" width="640" xmlns="http://www.w3.org/2000/svg" xmlns:xlink="http://www.w3.org/1999/xlink"><clipPath id="a"><path d="m-85.333-.000003h682.67v512h-682.67z"/></clipPath><g clip-path="url(#a)" transform="matrix(.9375 0 0 .9375 80 .000003)"><g stroke-width="1pt" transform="matrix(17.067 0 0 17.067 -256 -.000002)"><path d="m0 0h60v30h-60z" fill="#006"/><path d="m0 0v3.3541l53.292 26.646h6.708v-3.354l-53.292-26.646h-6.708zm60 0v3.354l-53.292 26.646h-6.708v-3.354l53.292-26.646z" fill="#fff"/><path d="m25 0v30h10v-30zm-25 10v10h60v-10z" fill="#fff"/><g fill="#c00"><path d="m0 12v6h60v-6zm27-12v30h6v-30z"/><path d="m0 30 20-10h4.472l-20 10h-4.472zm0-30 20 10h-4.472l-15.528-7.7639v-2.2361zm35.528 10 20-10h4.472l-20 10zm24.472 20-20-10h4.472l15.528 7.764z"/></g></g></g></svg>