<svg width="685" height="623" viewBox="0 0 685 623" fill="none" xmlns="http://www.w3.org/2000/svg">
<g filter="url(#filter0_d)">
<path fill-rule="evenodd" clip-rule="evenodd" d="M312.666 598.349C364.674 599.256 350.56 536.309 387.266 521.658C365.261 510.466 335.933 506.045 314.158 512.897C284.478 521.728 275.07 542.905 274.771 560.023C274.472 577.141 288.705 597.93 312.666 598.349Z" fill="#1785DB"/>
<path fill-rule="evenodd" clip-rule="evenodd" d="M312.666 598.349C364.674 599.256 350.56 536.309 387.266 521.658C365.261 510.466 335.933 506.045 314.158 512.897C284.478 521.728 275.07 542.905 274.771 560.023C274.472 577.141 288.705 597.93 312.666 598.349Z" fill="url(#paint0_linear)" style="mix-blend-mode:soft-light"/>
</g>
<g filter="url(#filter1_d)">
<path fill-rule="evenodd" clip-rule="evenodd" d="M477.417 602.744C449.065 590.666 439.41 536.412 404.308 520.658C426.314 509.466 455.641 505.045 477.417 511.897C504.473 520.658 511.885 544.276 512.184 561.395C512.482 578.513 492.686 607.82 477.417 602.744Z" fill="#1785DB"/>
<path fill-rule="evenodd" clip-rule="evenodd" d="M477.417 602.744C449.065 590.666 439.41 536.412 404.308 520.658C426.314 509.466 455.641 505.045 477.417 511.897C504.473 520.658 511.885 544.276 512.184 561.395C512.482 578.513 492.686 607.82 477.417 602.744Z" fill="url(#paint1_linear)" style="mix-blend-mode:soft-light"/>
</g>
<g filter="url(#filter2_d)">
<path fill-rule="evenodd" clip-rule="evenodd" d="M386.895 504.313C323.368 415.342 275.778 326.99 219.772 262.563C163.766 198.135 87.6993 173.142 66.7071 190.811C45.7148 208.481 60.4515 287.945 116.458 352.373C172.464 416.8 213.225 454.117 386.895 504.313Z" fill="#166AAC"/>
<path fill-rule="evenodd" clip-rule="evenodd" d="M386.895 504.313C323.368 415.342 275.778 326.99 219.772 262.563C163.766 198.135 87.6993 173.142 66.7071 190.811C45.7148 208.481 60.4515 287.945 116.458 352.373C172.464 416.8 213.225 454.117 386.895 504.313Z" fill="url(#paint2_linear)" fill-opacity="0.55" style="mix-blend-mode:soft-light"/>
</g>
<path opacity="0.55" fill-rule="evenodd" clip-rule="evenodd" d="M387.006 504.186C340.433 382.921 301.803 281.381 255.793 191.083C209.784 100.784 125.207 52.2545 93.1864 67.9882C61.1656 83.7219 51.1848 181.595 97.1941 271.893C143.203 362.191 298.427 451.742 387.006 504.186Z" fill="url(#paint3_linear)"/>
<g filter="url(#filter3_d)">
<path fill-rule="evenodd" clip-rule="evenodd" d="M387.023 504.266C344.711 381.449 309.648 278.623 266.818 186.774C223.988 94.9246 141.156 43.4727 108.606 58.0792C76.0553 72.6858 62.6649 170.151 105.495 262C148.325 353.849 300.328 448.762 387.023 504.266Z" fill="#EC6E2E"/>
<path fill-rule="evenodd" clip-rule="evenodd" d="M387.023 504.266C344.711 381.449 309.648 278.623 266.818 186.774C223.988 94.9246 141.156 43.4727 108.606 58.0792C76.0553 72.6858 62.6649 170.151 105.495 262C148.325 353.849 300.328 448.762 387.023 504.266Z" fill="url(#paint4_linear)" style="mix-blend-mode:soft-light"/>
<path fill-rule="evenodd" clip-rule="evenodd" d="M387.023 504.266C344.711 381.449 309.648 278.623 266.818 186.774C223.988 94.9246 141.156 43.4727 108.606 58.0792C76.0553 72.6858 62.6649 170.151 105.495 262C148.325 353.849 300.328 448.762 387.023 504.266Z" fill="url(#paint5_linear)"/>
</g>
<g filter="url(#filter4_d)">
<path fill-rule="evenodd" clip-rule="evenodd" d="M404.689 504.398C454.205 432.577 484.913 384.363 511.941 343.809C538.969 303.255 598.413 210.398 621.613 225.047C644.813 239.695 627.794 332.746 590.498 390.177C553.201 447.609 506.549 479.498 404.689 504.398Z" fill="#166AAC"/>
<path fill-rule="evenodd" clip-rule="evenodd" d="M404.689 504.398C454.205 432.577 484.913 384.363 511.941 343.809C538.969 303.255 598.413 210.398 621.613 225.047C644.813 239.695 627.794 332.746 590.498 390.177C553.201 447.609 506.549 479.498 404.689 504.398Z" fill="url(#paint6_linear)" fill-opacity="0.44" style="mix-blend-mode:soft-light"/>
</g>
<path opacity="0.552964" fill-rule="evenodd" clip-rule="evenodd" d="M404.974 504.924C448.796 427.644 472.203 369.789 496.015 326.242C519.827 282.694 575.381 189.432 599.772 201.998C624.164 214.563 613.061 296.354 580.32 357.932C547.578 419.509 504.936 470 404.974 504.924Z" fill="url(#paint7_linear)"/>
<g filter="url(#filter5_d)">
<path fill-rule="evenodd" clip-rule="evenodd" d="M405.091 504.972C444.809 425.504 465.156 366.504 486.656 321.77C508.156 277.035 558.754 180.994 583.769 192.266C608.785 203.537 601.978 285.797 572.504 349.004C543.03 412.211 503.089 464.864 405.091 504.972Z" fill="#7CC834"/>
<path fill-rule="evenodd" clip-rule="evenodd" d="M405.091 504.972C444.809 425.504 465.156 366.504 486.656 321.77C508.156 277.035 558.754 180.994 583.769 192.266C608.785 203.537 601.978 285.797 572.504 349.004C543.03 412.211 503.089 464.864 405.091 504.972Z" fill="url(#paint8_linear)" style="mix-blend-mode:soft-light"/>
<path fill-rule="evenodd" clip-rule="evenodd" d="M405.091 504.972C444.809 425.504 465.156 366.504 486.656 321.77C508.156 277.035 558.754 180.994 583.769 192.266C608.785 203.537 601.978 285.797 572.504 349.004C543.03 412.211 503.089 464.864 405.091 504.972Z" fill="url(#paint9_linear)"/>
</g>
<defs>
<filter id="filter0_d" x="259.114" y="502.544" width="137.347" height="115.083" filterUnits="userSpaceOnUse" color-interpolation-filters="sRGB">
<feFlood flood-opacity="0" result="BackgroundImageFix"/>
<feColorMatrix in="SourceAlpha" type="matrix" values="0 0 0 0 0 0 0 0 0 0 0 0 0 0 0 0 0 0 127 0"/>
<feOffset dx="-3" dy="6"/>
<feGaussianBlur stdDeviation="6"/>
<feColorMatrix type="matrix" values="0 0 0 0 0 0 0 0 0 0 0 0 0 0 0 0 0 0 0.36 0"/>
<feBlend mode="normal" in2="BackgroundImageFix" result="effect1_dropShadow"/>
<feBlend mode="normal" in="SourceGraphic" in2="effect1_dropShadow" result="shape"/>
</filter>
<filter id="filter1_d" x="389.113" y="501.625" width="132.792" height="121.017" filterUnits="userSpaceOnUse" color-interpolation-filters="sRGB">
<feFlood flood-opacity="0" result="BackgroundImageFix"/>
<feColorMatrix in="SourceAlpha" type="matrix" values="0 0 0 0 0 0 0 0 0 0 0 0 0 0 0 0 0 0 127 0"/>
<feOffset dx="-3" dy="6"/>
<feGaussianBlur stdDeviation="6"/>
<feColorMatrix type="matrix" values="0 0 0 0 0 0 0 0 0 0 0 0 0 0 0 0 0 0 0.36 0"/>
<feBlend mode="normal" in2="BackgroundImageFix" result="effect1_dropShadow"/>
<feBlend mode="normal" in="SourceGraphic" in2="effect1_dropShadow" result="shape"/>
</filter>
<filter id="filter2_d" x="0.0483398" y="137.905" width="420.354" height="450.913" filterUnits="userSpaceOnUse" color-interpolation-filters="sRGB">
<feFlood flood-opacity="0" result="BackgroundImageFix"/>
<feColorMatrix in="SourceAlpha" type="matrix" values="0 0 0 0 0 0 0 0 0 0 0 0 0 0 0 0 0 0 127 0"/>
<feOffset dx="-3" dy="4"/>
<feGaussianBlur stdDeviation="6"/>
<feColorMatrix type="matrix" values="0 0 0 0 0 0 0 0 0 0 0 0 0 0 0 0 0 0 0.36 0"/>
<feBlend mode="normal" in2="BackgroundImageFix" result="effect1_dropShadow"/>
<feBlend mode="normal" in="SourceGraphic" in2="effect1_dropShadow" result="shape"/>
</filter>
<filter id="filter3_d" x="5.94336" y="0.46402" width="425.95" height="592.363" filterUnits="userSpaceOnUse" color-interpolation-filters="sRGB">
<feFlood flood-opacity="0" result="BackgroundImageFix"/>
<feColorMatrix in="SourceAlpha" type="matrix" values="0 0 0 0 0 0 0 0 0 0 0 0 0 0 0 0 0 0 127 0"/>
<feOffset dy="2"/>
<feGaussianBlur stdDeviation="11"/>
<feColorMatrix type="matrix" values="0 0 0 0 0 0 0 0 0 0 0 0 0 0 0 0 0 0 0.16293 0"/>
<feBlend mode="normal" in2="BackgroundImageFix" result="effect1_dropShadow"/>
<feBlend mode="normal" in="SourceGraphic" in2="effect1_dropShadow" result="shape"/>
</filter>
<filter id="filter4_d" x="389.689" y="200.825" width="294.466" height="370.563" filterUnits="userSpaceOnUse" color-interpolation-filters="sRGB">
<feFlood flood-opacity="0" result="BackgroundImageFix"/>
<feColorMatrix in="SourceAlpha" type="matrix" values="0 0 0 0 0 0 0 0 0 0 0 0 0 0 0 0 0 0 127 0"/>
<feOffset dx="-3" dy="4"/>
<feGaussianBlur stdDeviation="6"/>
<feColorMatrix type="matrix" values="0 0 0 0 0 0 0 0 0 0 0 0 0 0 0 0 0 0 0.36 0"/>
<feBlend mode="normal" in2="BackgroundImageFix" result="effect1_dropShadow"/>
<feBlend mode="normal" in="SourceGraphic" in2="effect1_dropShadow" result="shape"/>
</filter>
<filter id="filter5_d" x="379.884" y="158.183" width="276.667" height="407.055" filterUnits="userSpaceOnUse" color-interpolation-filters="sRGB">
<feFlood flood-opacity="0" result="BackgroundImageFix"/>
<feColorMatrix in="SourceAlpha" type="matrix" values="0 0 0 0 0 0 0 0 0 0 0 0 0 0 0 0 0 0 127 0"/>
<feOffset dy="2"/>
<feGaussianBlur stdDeviation="11"/>
<feColorMatrix type="matrix" values="0 0 0 0 0 0 0 0 0 0 0 0 0 0 0 0 0 0 0.16293 0"/>
<feBlend mode="normal" in2="BackgroundImageFix" result="effect1_dropShadow"/>
<feBlend mode="normal" in="SourceGraphic" in2="effect1_dropShadow" result="shape"/>
</filter>
<linearGradient id="paint0_linear" x1="369.313" y1="584.841" x2="370.4" y2="522.57" gradientUnits="userSpaceOnUse">
<stop stop-color="white"/>
<stop offset="1" stop-color="white" stop-opacity="0.01"/>
</linearGradient>
<linearGradient id="paint1_linear" x1="421.647" y1="588.89" x2="420.486" y2="522.417" gradientUnits="userSpaceOnUse">
<stop stop-color="white"/>
<stop offset="1" stop-color="white" stop-opacity="0.01"/>
</linearGradient>
<linearGradient id="paint2_linear" x1="400.316" y1="416.712" x2="39.8457" y2="359.22" gradientUnits="userSpaceOnUse">
<stop stop-color="white" stop-opacity="0.740772"/>
<stop offset="1" stop-color="white" stop-opacity="0.01"/>
</linearGradient>
<linearGradient id="paint3_linear" x1="108.688" y1="404.453" x2="370.947" y2="370.744" gradientUnits="userSpaceOnUse">
<stop stop-opacity="0.01"/>
<stop offset="1" stop-opacity="0.199219"/>
</linearGradient>
<linearGradient id="paint4_linear" x1="428.034" y1="382.718" x2="42.7468" y2="251.601" gradientUnits="userSpaceOnUse">
<stop stop-color="white"/>
<stop offset="1" stop-color="white" stop-opacity="0.01"/>
</linearGradient>
<linearGradient id="paint5_linear" x1="398.04" y1="399.028" x2="172.658" y2="371.953" gradientUnits="userSpaceOnUse">
<stop stop-color="white" stop-opacity="0.5"/>
<stop offset="1" stop-color="white" stop-opacity="0.01"/>
</linearGradient>
<linearGradient id="paint6_linear" x1="427.192" y1="413.955" x2="542.516" y2="442.648" gradientUnits="userSpaceOnUse">
<stop stop-color="white"/>
<stop offset="1" stop-color="white" stop-opacity="0.01"/>
</linearGradient>
<linearGradient id="paint7_linear" x1="572.342" y1="426.333" x2="439.649" y2="394.798" gradientUnits="userSpaceOnUse">
<stop stop-opacity="0.01"/>
<stop offset="1" stop-opacity="0.199219"/>
</linearGradient>
<linearGradient id="paint8_linear" x1="400.058" y1="432.206" x2="628.402" y2="391.974" gradientUnits="userSpaceOnUse">
<stop stop-color="white"/>
<stop offset="1" stop-color="white" stop-opacity="0.01"/>
</linearGradient>
<linearGradient id="paint9_linear" x1="414.949" y1="440.747" x2="537.109" y2="442.031" gradientUnits="userSpaceOnUse">
<stop stop-color="white" stop-opacity="0.5"/>
<stop offset="1" stop-color="white" stop-opacity="0.01"/>
</linearGradient>
</defs>
</svg>
